<svg xmlns="http://www.w3.org/2000/svg" xmlns:xlink="http://www.w3.org/1999/xlink" width="793" zoomAndPan="magnify" viewBox="0 0 595.5 842.249979" height="1122" preserveAspectRatio="xMidYMid meet" version="1.0"><defs><g/></defs><g fill="#7a202b" fill-opacity="1"><g transform="translate(243.161617, 513.153024)"><g><path d="M 71.621094 -72.085938 C 73.71875 -62.054688 74.417969 -52.722656 73.71875 -44.089844 C 72.554688 -29.859375 68.585938 -20.296875 62.054688 -15.164062 C 56.457031 -10.730469 51.324219 -11.664062 46.890625 -18.195312 C 38.726562 -29.160156 36.394531 -50.855469 40.125 -83.285156 C 41.527344 -95.183594 43.390625 -105.445312 45.726562 -113.84375 C 48.058594 -122.242188 50.390625 -128.542969 52.722656 -132.507812 C 55.054688 -136.242188 57.621094 -139.273438 60.421875 -141.375 C 63.222656 -143.238281 65.320312 -144.40625 66.488281 -144.640625 C 67.652344 -144.640625 68.820312 -144.640625 70.21875 -144.640625 C 72.554688 -144.40625 74.1875 -143.238281 75.585938 -141.375 C 76.753906 -139.273438 77.453125 -137.175781 77.917969 -134.839844 C 78.152344 -132.507812 78.152344 -129.707031 78.152344 -126.675781 C 77.917969 -123.644531 77.683594 -121.542969 77.453125 -120.378906 L 76.984375 -117.578125 L 83.984375 -112.445312 C 86.082031 -122.941406 87.484375 -132.042969 87.949219 -139.507812 C 88.417969 -146.972656 88.183594 -152.804688 87.25 -157.46875 C 86.082031 -161.902344 84.683594 -165.402344 82.816406 -167.734375 C 80.953125 -170.066406 78.386719 -172.402344 75.351562 -174.5 C 72.085938 -176.367188 68.121094 -177.53125 62.988281 -177.765625 C 57.855469 -177.765625 52.023438 -176.367188 45.492188 -173.101562 C 38.960938 -169.835938 32.660156 -164.933594 26.828125 -158.402344 C 20.761719 -151.871094 15.398438 -141.839844 10.496094 -128.308594 C 5.597656 -114.777344 2.332031 -98.679688 0.933594 -80.25 C 0.234375 -73.019531 0.234375 -66.019531 0.699219 -59.488281 C 1.867188 -35.460938 8.398438 -17.03125 20.53125 -4.199219 C 29.859375 6.066406 39.890625 9.796875 50.15625 6.53125 C 61.820312 3.03125 70.453125 -8.632812 75.585938 -28.460938 C 75.585938 -27.527344 75.351562 -24.730469 74.886719 -19.828125 C 74.417969 -14.929688 74.1875 -11.898438 74.1875 -10.496094 L 74.886719 0 C 75.585938 7 77.453125 12.132812 80.484375 14.929688 C 83.285156 17.964844 86.316406 19.363281 89.582031 18.894531 C 92.847656 18.664062 96.347656 17.496094 100.3125 15.398438 C 104.046875 13.53125 106.847656 11.898438 108.246094 10.730469 C 109.644531 9.566406 111.046875 8.632812 111.980469 7.699219 C 109.644531 5.832031 108.011719 1.867188 107.078125 -4.199219 C 106.148438 -10.265625 105.914062 -16.5625 106.148438 -23.5625 C 106.148438 -30.328125 105.914062 -37.558594 105.445312 -45.023438 C 104.746094 -52.488281 103.582031 -58.554688 101.714844 -63.453125 C 99.847656 -68.355469 96.347656 -71.851562 91.449219 -74.1875 C 86.550781 -76.519531 80.019531 -75.820312 71.621094 -72.085938 Z M 71.621094 -72.085938 "/></g></g></g></svg>