<?xml version="1.0" encoding="UTF-8"?>
<svg xmlns="http://www.w3.org/2000/svg" xmlns:xlink="http://www.w3.org/1999/xlink" width="23px" height="32px" viewBox="0 0 23 32" version="1.1">
<g id="surface1">
<path style=" stroke:none;fill-rule:nonzero;fill:rgb(47.843137%,12.54902%,16.862745%);fill-opacity:1;" d="M 12.15625 16.757812 C 12.238281 17.136719 12.265625 17.492188 12.238281 17.820312 C 12.195312 18.359375 12.039062 18.722656 11.789062 18.917969 C 11.570312 19.085938 11.375 19.050781 11.203125 18.804688 C 10.886719 18.386719 10.796875 17.5625 10.941406 16.332031 C 10.996094 15.878906 11.066406 15.492188 11.15625 15.171875 C 11.246094 14.851562 11.335938 14.613281 11.429688 14.460938 C 11.519531 14.320312 11.617188 14.207031 11.726562 14.125 C 11.832031 14.054688 11.914062 14.011719 11.960938 14 C 12.003906 14 12.050781 14 12.105469 14 C 12.195312 14.011719 12.257812 14.054688 12.3125 14.125 C 12.355469 14.207031 12.382812 14.285156 12.402344 14.375 C 12.410156 14.460938 12.410156 14.570312 12.410156 14.683594 C 12.402344 14.800781 12.390625 14.878906 12.382812 14.921875 L 12.363281 15.03125 L 12.636719 15.222656 C 12.714844 14.824219 12.769531 14.480469 12.789062 14.195312 C 12.804688 13.914062 12.796875 13.691406 12.761719 13.515625 C 12.714844 13.347656 12.664062 13.214844 12.589844 13.125 C 12.519531 13.035156 12.417969 12.949219 12.300781 12.867188 C 12.175781 12.796875 12.023438 12.753906 11.824219 12.742188 C 11.625 12.742188 11.402344 12.796875 11.148438 12.921875 C 10.894531 13.042969 10.652344 13.230469 10.429688 13.480469 C 10.195312 13.726562 9.988281 14.109375 9.796875 14.621094 C 9.609375 15.136719 9.480469 15.746094 9.425781 16.449219 C 9.402344 16.722656 9.402344 16.988281 9.417969 17.234375 C 9.464844 18.148438 9.714844 18.847656 10.183594 19.335938 C 10.542969 19.726562 10.933594 19.867188 11.328125 19.742188 C 11.78125 19.609375 12.113281 19.167969 12.3125 18.414062 C 12.3125 18.449219 12.300781 18.554688 12.285156 18.742188 C 12.265625 18.929688 12.257812 19.042969 12.257812 19.097656 L 12.285156 19.496094 C 12.3125 19.761719 12.382812 19.957031 12.5 20.0625 C 12.609375 20.175781 12.726562 20.230469 12.851562 20.210938 C 12.976562 20.203125 13.113281 20.160156 13.265625 20.078125 C 13.410156 20.007812 13.519531 19.945312 13.574219 19.902344 C 13.625 19.859375 13.679688 19.824219 13.714844 19.789062 C 13.625 19.714844 13.5625 19.566406 13.527344 19.335938 C 13.492188 19.105469 13.480469 18.867188 13.492188 18.601562 C 13.492188 18.34375 13.480469 18.070312 13.464844 17.785156 C 13.4375 17.5 13.390625 17.269531 13.320312 17.085938 C 13.25 16.898438 13.113281 16.765625 12.921875 16.675781 C 12.734375 16.589844 12.480469 16.617188 12.15625 16.757812 Z M 12.15625 16.757812 "/>
</g>
</svg>
